<svg width="43" height="42" viewBox="0 0 43 42" fill="none" xmlns="http://www.w3.org/2000/svg">
<path d="M20.7895 0.0294762C19.3784 0.10957 18.226 0.288246 16.7594 0.651752C15.6441 0.935165 13.931 1.53896 13.1792 1.92711C13.0437 1.99489 12.9081 2.0565 12.8711 2.06266C12.8403 2.06882 12.5445 2.21669 12.2241 2.3892C6.88763 5.21101 3.03626 10.0907 1.59431 15.8637C1.14447 17.6812 0.984253 19.0243 0.984253 21.0082C0.984253 22.6594 1.08285 23.7007 1.3848 25.1732C2.96231 33.0102 9.01358 39.3747 16.7533 41.3339C18.565 41.7898 19.9699 41.9562 22.022 41.95C23.809 41.9439 24.5793 41.8761 26.1506 41.5557C30.1499 40.7548 33.841 38.777 36.7373 35.8936C40.1449 32.505 42.2524 28.186 42.8255 23.3803C42.9549 22.2898 42.9734 19.8623 42.8563 18.821C42.4496 15.1675 41.1247 11.6679 39.0666 8.80914C37.3658 6.44325 35.0919 4.35461 32.6517 2.9129C32.1957 2.64797 31.0619 2.04418 31.0187 2.04418C31.0003 2.05034 30.877 1.99489 30.7414 1.92711C29.6507 1.36645 27.5001 0.676399 25.9349 0.3745C24.3328 0.0664444 22.4102 -0.0629425 20.7895 0.0294762ZM26.7792 11.939C28.8188 12.3395 30.1437 13.43 30.7476 15.2044C31.068 16.1409 31.0927 16.4921 31.1235 20.2134C31.1666 25.2102 31.0804 26.1713 30.4518 27.4405C30.2361 27.8841 30.0883 28.0751 29.5768 28.5926C29.0592 29.104 28.8681 29.2519 28.4245 29.4675C27.2228 30.059 26.3232 30.1576 21.9603 30.1576C17.5975 30.1576 16.6978 30.059 15.4962 29.4675C15.0525 29.2519 14.8615 29.104 14.3439 28.5926C13.8324 28.0751 13.6845 27.8841 13.4688 27.4405C12.8403 26.1713 12.754 25.2102 12.7972 20.2134C12.828 16.4921 12.8526 16.1409 13.1731 15.2044C13.6907 13.6888 14.7814 12.6291 16.3219 12.1485C17.3572 11.8219 17.6037 11.8096 22.3917 11.8281C25.6083 11.8404 26.3909 11.8589 26.7792 11.939Z" fill="white"/>
<path d="M18.6636 13.5285C16.969 13.6024 16.211 13.8427 15.5209 14.5451C14.5966 15.4816 14.4425 16.3934 14.4487 21.1006C14.4487 23.5773 14.5226 25.2285 14.652 25.8077C14.9601 27.1139 15.8228 27.9764 17.1292 28.2845C17.7269 28.42 19.3414 28.4878 21.9604 28.4878C24.5793 28.4878 26.1938 28.42 26.7915 28.2845C28.1041 27.9764 28.9606 27.12 29.2687 25.8077C29.4043 25.2285 29.4721 23.5712 29.4721 21.0389C29.4721 16.3749 29.3242 15.4816 28.3998 14.5451C27.685 13.8181 26.9764 13.6024 25.0415 13.5223C23.5071 13.4546 20.2719 13.4607 18.6636 13.5285ZM27.3831 15.0934C27.7405 15.2783 27.9562 15.6418 27.9562 16.0792C27.9562 17.1266 26.6806 17.5887 26.0028 16.7877C25.2325 15.8697 26.3047 14.5512 27.3831 15.0934ZM22.6937 16.3626C24.456 16.646 25.8857 17.8906 26.4218 19.6034C27.1612 21.9816 25.8857 24.5262 23.5132 25.3764C21.1531 26.2205 18.4849 24.9883 17.6099 22.6408C17.351 21.9446 17.2525 21.3224 17.2956 20.6631C17.4928 17.9276 20.0008 15.9252 22.6937 16.3626Z" fill="white"/>
</svg>
