<svg width="43" height="42" viewBox="0 0 43 42" fill="none" xmlns="http://www.w3.org/2000/svg">
<path d="M20.2605 0.0483475C17.6066 0.232426 14.8606 0.981277 12.4747 2.17777C9.77054 3.53324 7.41386 5.42838 5.55111 7.75025C3.00188 10.9256 1.52005 14.5401 1.0596 18.7028C0.959137 19.6106 0.959137 21.8948 1.0596 22.8026C1.3568 25.4759 2.00981 27.7225 3.16513 30.0401C5.17857 34.0647 8.4143 37.2944 12.4747 39.3276C14.5132 40.3484 16.8155 41.047 19.0675 41.3315C23.1488 41.8461 27.2343 41.1767 30.8342 39.3945C33.0025 38.3236 34.7229 37.0936 36.3973 35.416C38.0759 33.7384 39.3107 32.019 40.3488 29.9146C42.3037 25.9612 42.9316 21.5392 42.1697 17.1548C41.8265 15.1886 41.2404 13.3897 40.3488 11.5907C39.3065 9.47805 38.0759 7.7628 36.3973 6.08938C34.0448 3.73405 31.2528 2.02298 28.1301 1.01475C25.5767 0.19059 22.9228 -0.131542 20.2605 0.0483475ZM31.437 12.6032C31.8263 12.7998 32.0146 13.2432 31.9686 13.8289C31.956 13.9879 31.7174 15.1844 31.4412 16.4855C31.1649 17.7866 30.7588 19.7068 30.537 20.7527C30.3151 21.7986 29.8631 23.928 29.5324 25.4801C29.2017 27.0322 28.8333 28.7558 28.7203 29.308C28.4691 30.5045 28.4231 30.6719 28.2598 30.9229C28.0212 31.3036 27.6906 31.4542 27.2552 31.3705C26.912 31.3078 26.6399 31.153 25.7818 30.5129C25.3506 30.1949 24.4758 29.5507 23.8353 29.0779C23.1949 28.6052 22.3953 28.0195 22.0646 27.7685L21.4577 27.3208L21.2233 27.5426C18.5108 30.1615 18.5108 30.1615 18.0964 30.2284C17.9415 30.2535 17.9164 30.2451 17.9164 30.1782C17.9122 30.1364 17.9959 28.9482 18.0922 27.5342L18.2722 24.9655L18.9001 24.3966C19.2433 24.0828 19.8252 23.5598 20.1893 23.2293C20.5493 22.903 21.1354 22.3759 21.487 22.058C21.8344 21.74 22.8223 20.8531 23.6721 20.0833C24.526 19.3136 25.5139 18.4225 25.8697 18.1003C26.2255 17.7782 26.8115 17.2511 27.1673 16.9289C28.105 16.0922 28.1384 16.0462 27.9417 15.9165C27.7533 15.791 27.5273 15.8914 26.3511 16.6277C25.0576 17.4393 20.2187 20.4849 18.7326 21.4221C18.1592 21.786 17.1629 22.4094 16.5225 22.8152L15.3588 23.5473L14.8899 23.4009C14.6304 23.3214 13.6509 23.016 12.7049 22.719C11.7631 22.4219 10.771 22.1165 10.5073 22.0329C9.94635 21.8571 9.61566 21.6814 9.50264 21.4932C9.34776 21.2422 9.41055 21.0079 9.70775 20.7401C9.95054 20.5184 10.2101 20.4013 11.6793 19.8323C12.4035 19.5562 13.5546 19.1127 14.2328 18.8492C14.9109 18.5856 16.016 18.1631 16.6815 17.9079C17.3513 17.6485 18.7243 17.1214 19.7373 16.7281C20.7503 16.3391 22.1819 15.7868 22.9186 15.5023C23.6553 15.2179 25.0953 14.6656 26.1208 14.2682C28.9673 13.1679 30.4826 12.5864 30.5998 12.553C30.8258 12.4818 31.2444 12.5069 31.437 12.6032Z" fill="white"/>
</svg>
