<svg width="42" height="42" viewBox="0 0 42 42" fill="none" xmlns="http://www.w3.org/2000/svg">
<path d="M20.2099 0.0157242C19.593 0.0419731 18.2779 0.170597 17.6636 0.262474C16.9496 0.372723 15.6424 0.66935 14.9336 0.884598C14.2511 1.08935 13.3875 1.3991 12.8599 1.62747C12.7313 1.6826 12.5318 1.7666 12.4189 1.81122C12.1826 1.90835 10.9646 2.51735 10.7336 2.65385C10.647 2.70635 10.458 2.8166 10.3136 2.9006C9.87788 3.15522 8.95913 3.75635 8.63363 4.00047C8.27925 4.2656 7.95375 4.5176 7.56788 4.82735C6.8355 5.41535 5.44425 6.80922 4.77488 7.6256C4.10025 8.45247 3.38363 9.47622 2.88488 10.3293C2.80088 10.4737 2.69063 10.6627 2.63813 10.7493C2.50163 10.9803 1.89263 12.1983 1.7955 12.4346C1.75088 12.5475 1.66688 12.7444 1.61175 12.8756C1.23638 13.7445 0.861 14.8837 0.606375 15.9337C0.312375 17.136 0.168 18.06 0.04725 19.4775C-0.01575 20.1889 -0.01575 21.8164 0.04725 22.5225C0.091875 23.058 0.1995 24.0056 0.249375 24.3206C0.28875 24.5674 0.559125 25.9376 0.574875 25.9586C0.580125 25.9691 0.627375 26.1476 0.679875 26.3576C1.00013 27.6255 1.56188 29.1191 2.20238 30.3975C2.43863 30.8726 2.83763 31.5997 2.95838 31.7756C2.99775 31.8334 3.02925 31.8885 3.02925 31.9016C3.02925 31.9252 3.81675 33.1091 3.99525 33.3532C4.11338 33.5186 4.60425 34.1539 4.641 34.1932C4.65675 34.209 4.70663 34.2694 4.74863 34.3245C4.79325 34.3796 4.86938 34.4741 4.91925 34.5319C4.97175 34.5896 5.0715 34.7077 5.14238 34.7944C5.59388 35.3325 6.804 36.5295 7.32113 36.9469C7.40775 37.0177 7.48388 37.0807 7.49175 37.0886C7.55213 37.1569 8.4315 37.8472 8.63363 37.9837C8.70713 38.031 8.77013 38.0809 8.778 38.0887C8.78588 38.0966 8.9565 38.2174 9.15863 38.3539C9.64425 38.6846 10.0695 38.9471 10.7179 39.3225C11.0066 39.4905 12.0855 40.0312 12.3874 40.1599C12.5318 40.2202 12.7575 40.3174 12.8861 40.3751C13.9099 40.8161 15.7369 41.3752 16.7974 41.5669C16.9286 41.5905 17.1885 41.6377 17.3749 41.6745C17.7188 41.7375 18.7268 41.8635 19.4355 41.9265C19.95 41.9711 21.9923 41.9737 22.5068 41.9265C22.8323 41.8976 23.2339 41.8556 23.6749 41.8031C23.7326 41.7952 23.8875 41.7795 24.0161 41.7637C24.6566 41.6902 26.0741 41.3831 26.9299 41.1311C27.846 40.8581 28.8908 40.4722 29.6205 40.131C29.715 40.0864 29.8436 40.0286 29.9093 39.9997C30.345 39.8081 31.0538 39.4301 31.8649 38.955C32.1746 38.7739 33.033 38.2042 33.2299 38.052C33.285 38.0074 33.3769 37.9417 33.4294 37.905C33.9964 37.5191 34.8915 36.7526 35.6948 35.9625C36.519 35.1514 37.485 34.0436 37.8893 33.4451C37.926 33.3926 37.9916 33.3007 38.0363 33.2456C38.1885 33.0487 38.7581 32.1904 38.9393 31.8806C39.4144 31.0695 39.7924 30.3607 39.984 29.925C40.0129 29.8594 40.0706 29.7307 40.1153 29.6362C40.4591 28.8986 40.8398 27.8749 41.1154 26.9456C41.3674 26.0899 41.6745 24.6724 41.748 24.0319C41.7638 23.9006 41.7795 23.7484 41.7874 23.6906C41.8399 23.2496 41.8819 22.848 41.9108 22.5225C41.958 22.008 41.9554 19.9657 41.9108 19.4512C41.8478 18.7425 41.7218 17.7345 41.6588 17.3906C41.622 17.2016 41.5748 16.9417 41.5511 16.8131C41.3595 15.7526 40.8004 13.9256 40.3594 12.9018C40.3016 12.7706 40.2045 12.5475 40.1441 12.4031C40.0155 12.1012 39.4748 11.0223 39.3068 10.7336C38.9314 10.0852 38.6689 9.65997 38.3381 9.17435C38.2016 8.97223 38.0809 8.8016 38.073 8.79372C38.0651 8.78585 38.0153 8.72022 37.968 8.64935C37.8315 8.44722 37.1411 7.56785 37.0729 7.50747C37.065 7.4996 37.002 7.42347 36.9311 7.33685C36.5138 6.81973 35.3168 5.6096 34.7786 5.1581C34.692 5.08722 34.5739 4.98747 34.5161 4.93497C34.4584 4.8851 34.3639 4.80635 34.3088 4.76435C34.2536 4.71972 34.1933 4.67247 34.1775 4.65672C34.1381 4.61997 33.5029 4.1291 33.3375 4.01097C33.0934 3.83247 31.9095 3.04498 31.8859 3.04498C31.8728 3.04498 31.8176 3.01347 31.7599 2.9741C31.584 2.85335 30.8569 2.45435 30.3818 2.2181C29.1034 1.5776 27.6098 1.01585 26.3419 0.695599C26.1319 0.643097 25.956 0.595848 25.9455 0.590599C25.9245 0.577473 24.5359 0.301849 24.3049 0.265099C23.9846 0.215225 23.0081 0.104973 22.5199 0.0655975C22.0526 0.0262222 20.6666 -0.00265121 20.2099 0.0157242ZM12.6236 13.6552C12.8809 13.7313 13.0174 13.8337 13.1618 14.0569C13.293 14.259 13.3403 14.3692 13.5056 14.8312C13.5791 15.0412 13.692 15.3405 13.755 15.5006C13.818 15.6581 13.8705 15.7999 13.8705 15.813C13.8705 15.8235 13.9309 15.9678 14.0018 16.1306C14.0753 16.2934 14.133 16.4377 14.133 16.4482C14.133 16.4692 14.2013 16.6162 14.5609 17.3906C14.7604 17.8185 14.9678 18.2201 15.4061 19.0181C15.5321 19.2491 15.834 19.7347 16.1018 20.1364C16.7344 21.0892 17.4169 21.7901 17.8106 21.8951C18.0521 21.9607 18.2464 21.8584 18.3251 21.6221C18.3671 21.4961 18.3724 21.2913 18.3803 19.089C18.3855 16.7921 18.3855 16.6792 18.333 16.3668C18.2543 15.8812 18.0968 15.5032 17.8185 15.1357C17.4773 14.6842 17.367 14.5136 17.3355 14.3823C17.2935 14.2065 17.3355 14.0464 17.4668 13.8678C17.5481 13.7628 17.6033 13.7208 17.7214 13.671L17.8736 13.6106H20.1705C22.6406 13.6106 22.6301 13.6106 22.8139 13.7471C22.9268 13.8311 23.0528 14.0936 23.0843 14.3193C23.1 14.4322 23.1105 15.6213 23.1105 17.3643C23.1105 20.3385 23.1131 20.4251 23.2208 20.5747C23.3573 20.7716 23.5646 20.8005 23.8508 20.6666C24.633 20.2965 25.9849 18.5299 27.1189 16.3931C27.3 16.0492 27.8276 14.9809 27.8486 14.91C27.8591 14.8732 27.9116 14.7551 27.9668 14.6475C28.0193 14.5399 28.0796 14.406 28.0954 14.3535C28.1453 14.2012 28.3448 13.9518 28.518 13.8232C28.7963 13.6185 28.812 13.6159 30.4999 13.6054C32.3111 13.5922 32.4844 13.608 32.7075 13.8127C32.9411 14.028 32.9569 14.2721 32.7705 14.8443C32.6576 15.1961 32.5973 15.3379 32.3689 15.7894C32.2954 15.9337 32.214 16.0991 32.1851 16.1568C32.0854 16.3642 31.6155 17.1649 31.2848 17.7003C31.0931 18.0075 30.5996 18.7819 30.4868 18.9525C30.4343 19.0312 30.2846 19.2544 30.156 19.446C30.0274 19.6376 29.8935 19.8397 29.8568 19.8975C29.82 19.9526 29.7098 20.118 29.6074 20.2624C29.5076 20.4067 29.3974 20.5642 29.3659 20.6115C29.3344 20.6587 29.2583 20.7664 29.2005 20.8477C29.1428 20.9291 29.0561 21.0761 29.0115 21.1759C28.8068 21.63 28.9328 21.8636 29.9119 22.8296C30.4238 23.3362 31.3399 24.3206 31.6391 24.6881C31.6969 24.759 31.8308 24.9191 31.9305 25.0425C32.5789 25.8195 33.0461 26.502 33.243 26.9561C33.3743 27.2632 33.4084 27.4234 33.3953 27.6675C33.3821 27.888 33.3375 27.9877 33.1748 28.1479C32.9569 28.3657 32.8493 28.3762 31.038 28.3762C29.19 28.3762 29.1926 28.3762 28.8068 28.1111C28.5941 27.9667 28.2004 27.573 27.5993 26.9062C26.082 25.2236 24.9716 24.2917 24.1605 24.0187C23.9794 23.9584 23.6329 23.9426 23.4596 23.9899C23.4045 24.0056 23.3179 24.0581 23.2706 24.108C23.1158 24.2655 23.1105 24.3311 23.1105 25.9744C23.1105 27.5966 23.1026 27.6701 22.9556 27.9011C22.8611 28.0455 22.6485 28.1872 22.407 28.2634C22.2311 28.3185 21.609 28.3762 21.1811 28.3762C20.7533 28.3762 20.0261 28.3159 19.7479 28.2581C18.4511 27.9851 17.3723 27.5336 16.2593 26.7934C15.8314 26.5099 15.5243 26.2841 15.2854 26.082C15.2355 26.0374 15.1279 25.9481 15.0491 25.8851C14.8575 25.7276 13.8574 24.7249 13.7104 24.5411C13.6474 24.4597 13.5293 24.3127 13.4479 24.213C13.2536 23.9715 12.9649 23.5935 12.8861 23.4727C12.8494 23.4202 12.7496 23.2759 12.663 23.1525C12.5738 23.0291 12.3533 22.7036 12.1721 22.4306C11.991 22.155 11.8099 21.8846 11.7705 21.8269C11.7311 21.7691 11.6498 21.6379 11.5894 21.5381C11.529 21.4357 11.4214 21.2599 11.3505 21.1444C11.277 21.0289 11.13 20.7742 11.0198 20.58C10.9095 20.3857 10.773 20.1495 10.7205 20.055C10.4003 19.5011 9.72038 18.1177 9.50513 17.5744C9.46838 17.4877 9.40538 17.3276 9.36075 17.22C9.0825 16.5401 8.84625 15.8366 8.70188 15.2617C8.48138 14.3613 8.4945 14.091 8.77538 13.8101C8.85413 13.7313 8.91188 13.7025 9.05625 13.6684C9.32925 13.6027 9.31088 13.6027 10.9568 13.6106C12.2509 13.6132 12.5134 13.6211 12.6236 13.6552Z" fill="white"/>
</svg>
