<?xml version="1.0" encoding="utf-8"?>
<!-- Generator: Adobe Illustrator 24.3.0, SVG Export Plug-In . SVG Version: 6.00 Build 0)  -->
<svg version="1.1" id="mdi-account" xmlns="http://www.w3.org/2000/svg" xmlns:xlink="http://www.w3.org/1999/xlink" x="0px"
	 y="0px" viewBox="0 0 100 100" style="enable-background:new 0 0 100 100;" xml:space="preserve">
<style type="text/css">
	.st0{fill:#FFFFFF;}
</style>
<g>
	<circle cx="50" cy="40" r="20"/>
	<path d="M87.5,83.1C78.3,93.5,64.9,100,50,100s-28.3-6.5-37.5-16.9C18.1,75.4,32.8,70,50,70S81.9,75.4,87.5,83.1z"/>
	<path class="st0" d="M50,70c-17.2,0-31.9,5.4-37.5,13.1C21.7,93.5,35.1,100,50,100s28.3-6.5,37.5-16.9C81.9,75.4,67.2,70,50,70z
		 M50,20c-11,0-20,9-20,20s9,20,20,20s20-9,20-20S61,20,50,20z"/>
</g>
</svg>
