<?xml version="1.0" encoding="utf-8"?>
<!-- Generator: Adobe Illustrator 24.3.0, SVG Export Plug-In . SVG Version: 6.00 Build 0)  -->
<svg version="1.1" id="Слой_1" xmlns="http://www.w3.org/2000/svg" xmlns:xlink="http://www.w3.org/1999/xlink" x="0px" y="0px"
	 viewBox="0 0 100 100" style="enable-background:new 0 0 100 100;" xml:space="preserve">
<style type="text/css">
	.st0{fill:url(#SVGID_1_);}
	.st1{fill-opacity:9.000000e-02;}
	.st2{fill:url(#SVGID_2_);}
</style>
<g>
	
		<linearGradient id="SVGID_1_" gradientUnits="userSpaceOnUse" x1="-5.2599" y1="141.1296" x2="120.6982" y2="-38.7995" gradientTransform="matrix(1 0 0 -1 0 102.0052)">
		<stop  offset="0" style="stop-color:#9043F2"/>
		<stop  offset="0.7847" style="stop-color:#1FC9FF"/>
		<stop  offset="1" style="stop-color:#FF1FB3"/>
	</linearGradient>
	<path class="st0" d="M72.8,100c1.3,0,2.6-0.2,3.9-0.8c1.2-0.5,2.3-1.3,3.3-2.2l13.5-13.5c0.9-0.9,1.5-2.2,1.5-3.5
		c0-1.3-0.5-2.6-1.5-3.5l-20-20C72.6,55.5,71.3,55,70,55s-2.6,0.5-3.5,1.5l-8,7.9c-5.5-1.5-10.7-4.2-15-7.9c-3.7-4.3-6.5-9.5-7.9-15
		l7.9-8c0.9-0.9,1.5-2.2,1.5-3.5c0-1.3-0.5-2.6-1.5-3.5l-20-20C22.6,5.5,21.3,5,20,5c-1.3,0-2.6,0.5-3.5,1.5L2.9,20
		c-0.9,0.9-1.7,2.1-2.2,3.3C0.2,24.5,0,25.8,0,27.2c0.5,19.2,8.1,37.5,21.5,51.3C35.3,91.9,53.6,99.5,72.8,100z M20,17.1L32.9,30
		l-6.4,6.4c-0.6,0.6-1.1,1.3-1.3,2.1c-0.3,0.8-0.3,1.6-0.2,2.5c1.9,8.4,5.8,16.1,11.5,22.5C42.9,69.2,50.6,73.1,59,75
		c0.8,0.2,1.7,0.1,2.4-0.1s1.5-0.7,2.1-1.2l6.4-6.6L82.9,80l-10,10c-16.6-0.4-32.4-7-44.3-18.5C17.1,59.5,10.4,43.7,10,27.1L20,17.1
		z M90,45h10c0.1-5.9-0.9-11.9-3.2-17.4c-2.2-5.5-5.5-10.5-9.7-14.7c-4.2-4.2-9.2-7.5-14.7-9.7C66.8,1,60.9-0.1,55,0v10
		c4.6-0.2,9.3,0.6,13.6,2.3c4.3,1.7,8.2,4.3,11.5,7.6s5.9,7.2,7.6,11.5C89.4,35.7,90.2,40.4,90,45z"/>
	<path class="st1" d="M72.8,100c1.3,0,2.6-0.2,3.9-0.8c1.2-0.5,2.3-1.3,3.3-2.2l13.5-13.5c0.9-0.9,1.5-2.2,1.5-3.5
		c0-1.3-0.5-2.6-1.5-3.5l-20-20C72.6,55.5,71.3,55,70,55s-2.6,0.5-3.5,1.5l-8,7.9c-5.5-1.5-10.7-4.2-15-7.9c-3.7-4.3-6.5-9.5-7.9-15
		l7.9-8c0.9-0.9,1.5-2.2,1.5-3.5c0-1.3-0.5-2.6-1.5-3.5l-20-20C22.6,5.5,21.3,5,20,5c-1.3,0-2.6,0.5-3.5,1.5L2.9,20
		c-0.9,0.9-1.7,2.1-2.2,3.3C0.2,24.5,0,25.8,0,27.2c0.5,19.2,8.1,37.5,21.5,51.3C35.3,91.9,53.6,99.5,72.8,100z M20,17.1L32.9,30
		l-6.4,6.4c-0.6,0.6-1.1,1.3-1.3,2.1c-0.3,0.8-0.3,1.6-0.2,2.5c1.9,8.4,5.8,16.1,11.5,22.5C42.9,69.2,50.6,73.1,59,75
		c0.8,0.2,1.7,0.1,2.4-0.1s1.5-0.7,2.1-1.2l6.4-6.6L82.9,80l-10,10c-16.6-0.4-32.4-7-44.3-18.5C17.1,59.5,10.4,43.7,10,27.1L20,17.1
		z M90,45h10c0.1-5.9-0.9-11.9-3.2-17.4c-2.2-5.5-5.5-10.5-9.7-14.7c-4.2-4.2-9.2-7.5-14.7-9.7C66.8,1,60.9-0.1,55,0v10
		c4.6-0.2,9.3,0.6,13.6,2.3c4.3,1.7,8.2,4.3,11.5,7.6s5.9,7.2,7.6,11.5C89.4,35.7,90.2,40.4,90,45z"/>
	
		<linearGradient id="SVGID_2_" gradientUnits="userSpaceOnUse" x1="52.439" y1="90.9085" x2="83.9251" y2="45.9309" gradientTransform="matrix(1 0 0 -1 0 102.0052)">
		<stop  offset="0" style="stop-color:#9043F2"/>
		<stop  offset="0.7847" style="stop-color:#1FC9FF"/>
		<stop  offset="1" style="stop-color:#FF1FB3"/>
	</linearGradient>
	<path class="st2" d="M55,30c10.5,0,15,4.5,15,15h10c0-16.1-8.9-25-25-25V30z"/>
	<path class="st1" d="M55,30c10.5,0,15,4.5,15,15h10c0-16.1-8.9-25-25-25V30z"/>
</g>
</svg>
