<?xml version="1.0" encoding="utf-8"?>
<!-- Generator: Adobe Illustrator 24.3.0, SVG Export Plug-In . SVG Version: 6.00 Build 0)  -->
<svg version="1.1" id="Слой_1" xmlns="http://www.w3.org/2000/svg" xmlns:xlink="http://www.w3.org/1999/xlink" x="0px" y="0px"
	 viewBox="0 0 100 100" style="enable-background:new 0 0 100 100;" xml:space="preserve">
<style type="text/css">
	.st0{fill:url(#SVGID_1_);}
	.st1{fill-opacity:9.000000e-02;}
</style>
<g>
	
		<linearGradient id="SVGID_1_" gradientUnits="userSpaceOnUse" x1="-10.0456" y1="137.7742" x2="115.9123" y2="-42.1549" gradientTransform="matrix(1 0 0 -1 0 101.9999)">
		<stop  offset="0" style="stop-color:#9043F2"/>
		<stop  offset="0.7847" style="stop-color:#1FC9FF"/>
		<stop  offset="1" style="stop-color:#FF1FB3"/>
	</linearGradient>
	<path class="st0" d="M50.5,70.1c0,0.6,0.4,1,0.9,1h23.1c0.5,0,0.9-0.4,0.9-1v-6c0-0.5-0.4-1-0.9-1H51.4c-0.5,0-0.9,0.5-0.9,1V70.1z
		 M26.1,70.9l24-20.1c0.5-0.4,0.5-1.1,0-1.5l-24-20.1c-0.1-0.1-0.3-0.2-0.5-0.2c-0.2,0-0.4,0-0.6,0.1c-0.2,0.1-0.3,0.2-0.4,0.4
		c-0.1,0.2-0.2,0.3-0.2,0.5v7.8c0,0.3,0.1,0.6,0.4,0.8L38.6,50L24.9,61.5c-0.1,0.1-0.2,0.2-0.3,0.3c-0.1,0.1-0.1,0.3-0.1,0.4v7.8
		C24.5,71,25.5,71.4,26.1,70.9z M96,0H4C1.8,0,0,1.8,0,4v92c0,2.2,1.8,4,4,4h92c2.2,0,4-1.8,4-4V4C100,1.8,98.2,0,96,0z M91,91H9V9
		h82V91z"/>
	<path class="st1" d="M50.5,70.1c0,0.6,0.4,1,0.9,1h23.1c0.5,0,0.9-0.4,0.9-1v-6c0-0.5-0.4-1-0.9-1H51.4c-0.5,0-0.9,0.5-0.9,1V70.1z
		 M26.1,70.9l24-20.1c0.5-0.4,0.5-1.1,0-1.5l-24-20.1c-0.1-0.1-0.3-0.2-0.5-0.2c-0.2,0-0.4,0-0.6,0.1c-0.2,0.1-0.3,0.2-0.4,0.4
		c-0.1,0.2-0.2,0.3-0.2,0.5v7.8c0,0.3,0.1,0.6,0.4,0.8L38.6,50L24.9,61.5c-0.1,0.1-0.2,0.2-0.3,0.3c-0.1,0.1-0.1,0.3-0.1,0.4v7.8
		C24.5,71,25.5,71.4,26.1,70.9z M96,0H4C1.8,0,0,1.8,0,4v92c0,2.2,1.8,4,4,4h92c2.2,0,4-1.8,4-4V4C100,1.8,98.2,0,96,0z M91,91H9V9
		h82V91z"/>
</g>
</svg>
