<?xml version="1.0" encoding="utf-8"?>
<!-- Generator: Adobe Illustrator 24.3.0, SVG Export Plug-In . SVG Version: 6.00 Build 0)  -->
<svg version="1.1" id="Слой_1" xmlns="http://www.w3.org/2000/svg" xmlns:xlink="http://www.w3.org/1999/xlink" x="0px" y="0px"
	 viewBox="0 0 102 102" style="enable-background:new 0 0 102 102;" xml:space="preserve">
<style type="text/css">
	.st0{fill:none;stroke:#96A2B3;stroke-width:2.0408;}
	.st1{display:none;fill:none;stroke:#000000;stroke-width:2.0408;stroke-opacity:9.000000e-02;}
	.st2{display:none;fill:#96A2B3;stroke:#96A2B3;stroke-width:4.0816;stroke-linecap:round;stroke-linejoin:round;}
	.st3{fill:none;stroke:#96A2B3;stroke-width:4.0816;stroke-linecap:round;stroke-linejoin:round;}
	.st4{fill:#96A2B3;}
	.st5{display:none;fill:#96A2B3;fill-opacity:9.000000e-02;}
</style>
<g>
	<path class="st0" d="M20.4,1h61.2C92.3,1,101,9.7,101,20.4v61.2c0,10.7-8.7,19.4-19.4,19.4H20.4C9.7,101,1,92.3,1,81.6V20.4
		C1,9.7,9.7,1,20.4,1z"/>
	<path class="st1" d="M20.4,1h61.2C92.3,1,101,9.7,101,20.4v61.2c0,10.7-8.7,19.4-19.4,19.4H20.4C9.7,101,1,92.3,1,81.6V20.4
		C1,9.7,9.7,1,20.4,1z"/>
	<path class="st2" d="M62.4,34.2l5.4,5.4L62.4,34.2z M65.9,29.4L51.3,44.1c-0.8,0.8-1.3,1.7-1.5,2.8l-1.3,6.8l6.8-1.4
		c1-0.2,2-0.7,2.8-1.5l14.6-14.6c0.4-0.4,0.8-1,1-1.5c0.2-0.6,0.4-1.2,0.4-1.8s-0.1-1.2-0.4-1.8c-0.2-0.6-0.6-1.1-1-1.5
		s-1-0.8-1.5-1c-0.6-0.2-1.2-0.4-1.8-0.4c-0.6,0-1.2,0.1-1.8,0.4C66.9,28.7,66.3,29,65.9,29.4L65.9,29.4z"/>
	<path class="st3" d="M62.4,34.2l5.4,5.4L62.4,34.2z M65.9,29.4L51.3,44.1c-0.8,0.8-1.3,1.7-1.5,2.8l-1.3,6.8l6.8-1.4
		c1-0.2,2-0.7,2.8-1.5l14.6-14.6c0.4-0.4,0.8-1,1-1.5c0.2-0.6,0.4-1.2,0.4-1.8s-0.1-1.2-0.4-1.8c-0.2-0.6-0.6-1.1-1-1.5
		s-1-0.8-1.5-1c-0.6-0.2-1.2-0.4-1.8-0.4c-0.6,0-1.2,0.1-1.8,0.4C66.9,28.7,66.3,29,65.9,29.4L65.9,29.4z"/>
	<path class="st4" d="M30.6,66.3h-2H30.6z M35.7,33.2v-2V33.2z M66.8,58.7v7.7h4.1v-7.7H66.8z M66.8,66.3c0,0.8-0.3,1.6-0.9,2.2
		l2.9,2.9c1.3-1.3,2.1-3.2,2.1-5.1H66.8z M65.9,68.5c-0.6,0.6-1.4,0.9-2.2,0.9v4.1c1.9,0,3.7-0.8,5.1-2.1L65.9,68.5z M63.8,69.4
		H35.7v4.1h28.1C63.8,73.5,63.8,69.4,63.8,69.4z M35.7,69.4c-0.8,0-1.6-0.3-2.2-0.9l-2.9,2.9c1.3,1.3,3.2,2.1,5.1,2.1V69.4z
		 M33.5,68.5c-0.6-0.6-0.9-1.4-0.9-2.2h-4.1c0,1.9,0.8,3.7,2.1,5.1L33.5,68.5z M32.7,66.3v-28h-4.1v28.1L32.7,66.3L32.7,66.3z
		 M32.7,38.3c0-0.8,0.3-1.6,0.9-2.2l-2.9-2.9c-1.3,1.3-2.1,3.2-2.1,5.1C28.6,38.3,32.7,38.3,32.7,38.3z M33.5,36.1
		c0.6-0.6,1.4-0.9,2.2-0.9v-4.1c-1.9,0-3.7,0.8-5.1,2.1L33.5,36.1z M35.7,35.2h7.7v-4.1h-7.7V35.2z"/>
	<path class="st5" d="M30.6,66.3h-2H30.6z M35.7,33.2v-2V33.2z M66.8,58.7v7.7h4.1v-7.7H66.8z M66.8,66.3c0,0.8-0.3,1.6-0.9,2.2
		l2.9,2.9c1.3-1.3,2.1-3.2,2.1-5.1H66.8z M65.9,68.5c-0.6,0.6-1.4,0.9-2.2,0.9v4.1c1.9,0,3.7-0.8,5.1-2.1L65.9,68.5z M63.8,69.4
		H35.7v4.1h28.1C63.8,73.5,63.8,69.4,63.8,69.4z M35.7,69.4c-0.8,0-1.6-0.3-2.2-0.9l-2.9,2.9c1.3,1.3,3.2,2.1,5.1,2.1V69.4z
		 M33.5,68.5c-0.6-0.6-0.9-1.4-0.9-2.2h-4.1c0,1.9,0.8,3.7,2.1,5.1L33.5,68.5z M32.7,66.3v-28h-4.1v28.1L32.7,66.3L32.7,66.3z
		 M32.7,38.3c0-0.8,0.3-1.6,0.9-2.2l-2.9-2.9c-1.3,1.3-2.1,3.2-2.1,5.1C28.6,38.3,32.7,38.3,32.7,38.3z M33.5,36.1
		c0.6-0.6,1.4-0.9,2.2-0.9v-4.1c-1.9,0-3.7,0.8-5.1,2.1L33.5,36.1z M35.7,35.2h7.7v-4.1h-7.7V35.2z"/>
</g>
</svg>
