<?xml version="1.0" encoding="utf-8"?>
<!-- Generator: Adobe Illustrator 24.3.0, SVG Export Plug-In . SVG Version: 6.00 Build 0)  -->
<svg version="1.1" id="Слой_1" xmlns="http://www.w3.org/2000/svg" xmlns:xlink="http://www.w3.org/1999/xlink" x="0px" y="0px"
	 viewBox="0 0 100 100" style="enable-background:new 0 0 100 100;" xml:space="preserve">
<style type="text/css">
	.st0{fill:url(#SVGID_1_);}
	.st1{fill-opacity:9.000000e-02;}
	.st2{fill:none;stroke:#FFFFFF;stroke-width:4;stroke-linecap:round;stroke-linejoin:round;}
</style>
<g>
	<g>
		
			<linearGradient id="SVGID_1_" gradientUnits="userSpaceOnUse" x1="-10.0455" y1="1862.2258" x2="115.9123" y2="2042.1549" gradientTransform="matrix(1 0 0 1 0 -1898)">
			<stop  offset="0" style="stop-color:#9043F2"/>
			<stop  offset="0.7847" style="stop-color:#1FC9FF"/>
			<stop  offset="1" style="stop-color:#FF1FB3"/>
		</linearGradient>
		<path class="st0" d="M16,0h68c8.8,0,16,7.2,16,16v68c0,8.8-7.2,16-16,16H16c-8.8,0-16-7.2-16-16V16C0,7.2,7.2,0,16,0z"/>
		<path class="st1" d="M16,0h68c8.8,0,16,7.2,16,16v68c0,8.8-7.2,16-16,16H16c-8.8,0-16-7.2-16-16V16C0,7.2,7.2,0,16,0z"/>
	</g>
	<path class="st2" d="M61.2,33.5l5.3,5.3L61.2,33.5z M64.6,28.9L50.3,43.2c-0.7,0.7-1.2,1.7-1.4,2.7l-1.3,6.6l6.6-1.3
		c1-0.2,2-0.7,2.7-1.4l14.3-14.3c0.4-0.4,0.8-0.9,1-1.5s0.4-1.2,0.4-1.8c0-0.6-0.1-1.2-0.4-1.8c-0.2-0.6-0.6-1.1-1-1.5
		s-0.9-0.8-1.5-1s-1.2-0.4-1.8-0.4c-0.6,0-1.2,0.1-1.8,0.4C65.5,28.1,65,28.4,64.6,28.9L64.6,28.9z"/>
	<path class="st2" d="M67.5,57.5V65c0,1.3-0.5,2.6-1.5,3.5c-0.9,0.9-2.2,1.5-3.5,1.5H35c-1.3,0-2.6-0.5-3.5-1.5
		c-1-0.9-1.5-2.2-1.5-3.5V37.5c0-1.3,0.5-2.6,1.5-3.5c0.9-0.9,2.2-1.5,3.5-1.5h7.5"/>
</g>
</svg>
