<svg width="151" height="30" viewBox="0 0 151 30" fill="none" xmlns="http://www.w3.org/2000/svg">
<path d="M39.7203 18.4255C41.7555 18.4255 43.4053 16.7756 43.4053 14.7404C43.4053 12.7052 41.7555 11.0553 39.7203 11.0553C37.685 11.0553 36.0352 12.7052 36.0352 14.7404C36.0352 16.7756 37.685 18.4255 39.7203 18.4255Z" fill="#15191B"/>
<path d="M117.193 11.0553V14.7404C117.193 16.0125 117.031 17.2477 116.728 18.4255H116.728C115.092 24.783 109.321 29.4808 102.452 29.4808C94.3119 29.4808 87.7119 22.8808 87.7119 14.7404C87.7119 6.59927 94.3119 0 102.452 0C105.138 0 107.656 0.717858 109.824 1.973L109.822 1.97448L106.138 8.35633C106.132 8.35338 106.127 8.34969 106.121 8.34674C106.117 8.34527 106.112 8.34232 106.108 8.33938C105.03 7.72249 103.783 7.37019 102.452 7.37019C98.3825 7.37019 95.0821 10.6698 95.0821 14.7404C95.0821 18.8102 98.3825 22.1106 102.452 22.1106C105.18 22.1106 107.562 20.6284 108.836 18.4255H102.452C100.417 18.4255 98.7672 16.7753 98.7672 14.7404C98.7672 12.7047 100.417 11.0553 102.452 11.0553H117.193V11.0553Z" fill="#15191B"/>
<path d="M135.619 0C127.479 0 120.879 6.59927 120.879 14.7404C120.879 22.8808 127.479 29.4808 135.619 29.4808C143.76 29.4808 150.36 22.8808 150.36 14.7404C150.36 6.59927 143.76 0 135.619 0ZM135.619 22.1106C131.549 22.1106 128.249 18.8102 128.249 14.7404C128.249 10.6698 131.549 7.37019 135.619 7.37019C139.69 7.37019 142.989 10.6698 142.989 14.7404C142.989 18.8102 139.69 22.1106 135.619 22.1106Z" fill="#15191B"/>
<path d="M135.619 18.4255C137.654 18.4255 139.304 16.7756 139.304 14.7404C139.304 12.7052 137.654 11.0553 135.619 11.0553C133.583 11.0553 131.934 12.7052 131.934 14.7404C131.934 16.7756 133.583 18.4255 135.619 18.4255Z" fill="#15191B"/>
<path d="M39.7189 0C31.5785 0 24.9785 6.59927 24.9785 14.7404C24.9785 22.8808 31.5785 29.4808 39.7189 29.4808C40.9917 29.4808 42.2262 29.3194 43.404 29.0157V21.1244C42.3198 21.7517 41.0618 22.1106 39.7189 22.1106C35.6491 22.1106 32.3487 18.8102 32.3487 14.7404C32.3487 10.6698 35.6491 7.37019 39.7189 7.37019C43.7895 7.37019 47.0891 10.6698 47.0891 14.7404V29.4808H54.4593V14.7404C54.4593 6.59927 47.86 0 39.7189 0Z" fill="#15191B"/>
<path d="M14.7404 22.1106C10.6706 22.1106 7.37019 18.8102 7.37019 14.7404C7.37019 10.6698 10.6706 7.37019 14.7404 7.37019C16.776 7.37019 18.6186 8.19492 19.9518 9.52893L25.1633 4.31746C22.496 1.64945 18.8109 0 14.7404 0C6.60001 0 0 6.59927 0 14.7404C0 22.8808 6.60001 29.4808 14.7404 29.4808C18.8109 29.4808 22.496 27.8306 25.1633 25.1633L19.9518 19.9518C18.6186 21.2851 16.776 22.1106 14.7404 22.1106Z" fill="#15191B"/>
<path d="M18.4259 14.7403C18.4259 15.7582 18.0131 16.6794 17.3461 17.3457C16.6791 18.0127 15.7578 18.4254 14.7408 18.4254C12.7059 18.4254 11.0557 16.7752 11.0557 14.7403C11.0557 12.7047 12.7059 11.0552 14.7408 11.0552C15.7586 11.0552 16.6799 11.468 17.3469 12.1342C18.0131 12.8012 18.4259 13.7225 18.4259 14.7403Z" fill="#15191B"/>
<path d="M83.9412 11.0553C83.9412 4.94908 78.9921 0 72.8859 0H58.1455V29.4808H65.5157V22.1106H71.176L75.4308 29.4808H83.9412L78.7246 20.4442C81.8569 18.4926 83.9412 15.0175 83.9412 11.0553ZM72.8859 14.7404H65.5157V7.37019H72.8859C74.9215 7.37019 76.571 9.01964 76.571 11.0553C76.571 13.0902 74.9215 14.7404 72.8859 14.7404Z" fill="#15191B"/>
</svg>
